<svg width="399" height="309" viewBox="0 0 399 309" fill="none" xmlns="http://www.w3.org/2000/svg">
<g clip-path="url(#clip0_37_2113)">
<g filter="url(#filter0_f_37_2113)">
<path d="M19 420.969L268.961 58.9692L603 208.294" stroke="white" stroke-opacity="0.52" stroke-width="28" stroke-linejoin="round"/>
</g>
<line x1="1.5" y1="-121.031" x2="1.49996" y2="720.969" stroke="#093737" stroke-width="3"/>
<line x1="7.5" y1="-121.031" x2="7.49996" y2="720.969" stroke="#093737" stroke-width="3"/>
<line x1="13.5" y1="-121.031" x2="13.5" y2="720.969" stroke="#093737" stroke-width="3"/>
<line x1="19.5002" y1="-121.031" x2="19.5002" y2="720.969" stroke="#093737" stroke-width="3"/>
<line x1="25.5002" y1="-121.031" x2="25.5002" y2="720.969" stroke="#093737" stroke-width="3"/>
<line x1="31.5002" y1="-121.031" x2="31.5002" y2="720.969" stroke="#093737" stroke-width="3"/>
<line x1="37.5002" y1="-121.031" x2="37.5002" y2="720.969" stroke="#093737" stroke-width="3"/>
<line x1="43.5002" y1="-121.031" x2="43.5002" y2="720.969" stroke="#093737" stroke-width="3"/>
<line x1="49.5002" y1="-121.031" x2="49.5002" y2="720.969" stroke="#093737" stroke-width="3"/>
<line x1="55.5005" y1="-121.031" x2="55.5005" y2="720.969" stroke="#093737" stroke-width="3"/>
<line x1="61.5005" y1="-121.031" x2="61.5005" y2="720.969" stroke="#093737" stroke-width="3"/>
<line x1="67.5005" y1="-121.031" x2="67.5005" y2="720.969" stroke="#093737" stroke-width="3"/>
<line x1="73.5005" y1="-121.031" x2="73.5005" y2="720.969" stroke="#093737" stroke-width="3"/>
<line x1="79.5005" y1="-121.031" x2="79.5005" y2="720.969" stroke="#093737" stroke-width="3"/>
<line x1="85.5005" y1="-121.031" x2="85.5005" y2="720.969" stroke="#093737" stroke-width="3"/>
<line x1="91.5005" y1="-121.031" x2="91.5005" y2="720.969" stroke="#093737" stroke-width="3"/>
<line x1="97.5007" y1="-121.031" x2="97.5007" y2="720.969" stroke="#093737" stroke-width="3"/>
<line x1="103.501" y1="-121.031" x2="103.501" y2="720.969" stroke="#093737" stroke-width="3"/>
<line x1="109.501" y1="-121.031" x2="109.501" y2="720.969" stroke="#093737" stroke-width="3"/>
<line x1="115.501" y1="-121.031" x2="115.501" y2="720.969" stroke="#093737" stroke-width="3"/>
<line x1="121.501" y1="-121.031" x2="121.501" y2="720.969" stroke="#093737" stroke-width="3"/>
<line x1="127.501" y1="-121.031" x2="127.501" y2="720.969" stroke="#093737" stroke-width="3"/>
<line x1="133.501" y1="-121.031" x2="133.501" y2="720.969" stroke="#093737" stroke-width="3"/>
<line x1="139.501" y1="-121.031" x2="139.501" y2="720.969" stroke="#093737" stroke-width="3"/>
<line x1="145.501" y1="-121.031" x2="145.501" y2="720.969" stroke="#093737" stroke-width="3"/>
<line x1="151.501" y1="-121.031" x2="151.501" y2="720.969" stroke="#093737" stroke-width="3"/>
<line x1="157.501" y1="-121.031" x2="157.501" y2="720.969" stroke="#093737" stroke-width="3"/>
<line x1="163.501" y1="-121.031" x2="163.501" y2="720.969" stroke="#093737" stroke-width="3"/>
<line x1="169.501" y1="-121.031" x2="169.501" y2="720.969" stroke="#093737" stroke-width="3"/>
<line x1="175.501" y1="-121.031" x2="175.501" y2="720.969" stroke="#093737" stroke-width="3"/>
<line x1="181.501" y1="-121.031" x2="181.501" y2="720.969" stroke="#093737" stroke-width="3"/>
<line x1="187.501" y1="-121.031" x2="187.501" y2="720.969" stroke="#093737" stroke-width="3"/>
<line x1="193.501" y1="-121.031" x2="193.501" y2="720.969" stroke="#093737" stroke-width="3"/>
<line x1="199.501" y1="-121.031" x2="199.501" y2="720.969" stroke="#093737" stroke-width="3"/>
<line x1="205.501" y1="-121.031" x2="205.501" y2="720.969" stroke="#093737" stroke-width="3"/>
<line x1="211.501" y1="-121.031" x2="211.501" y2="720.969" stroke="#093737" stroke-width="3"/>
<line x1="217.501" y1="-121.031" x2="217.501" y2="720.969" stroke="#093737" stroke-width="3"/>
<line x1="223.501" y1="-121.031" x2="223.501" y2="720.969" stroke="#093737" stroke-width="3"/>
<line x1="229.501" y1="-121.031" x2="229.501" y2="720.969" stroke="#093737" stroke-width="3"/>
<line x1="235.501" y1="-121.031" x2="235.501" y2="720.969" stroke="#093737" stroke-width="3"/>
<line x1="241.501" y1="-121.031" x2="241.501" y2="720.969" stroke="#093737" stroke-width="3"/>
<line x1="247.501" y1="-121.031" x2="247.501" y2="720.969" stroke="#093737" stroke-width="3"/>
<line x1="253.501" y1="-121.031" x2="253.501" y2="720.969" stroke="#093737" stroke-width="3"/>
<line x1="259.501" y1="-121.031" x2="259.501" y2="720.969" stroke="#093737" stroke-width="3"/>
<line x1="265.501" y1="-121.031" x2="265.501" y2="720.969" stroke="#093737" stroke-width="3"/>
<line x1="271.501" y1="-121.031" x2="271.501" y2="720.969" stroke="#093737" stroke-width="3"/>
<line x1="277.501" y1="-121.031" x2="277.501" y2="720.969" stroke="#093737" stroke-width="3"/>
<line x1="283.502" y1="-121.031" x2="283.502" y2="720.969" stroke="#093737" stroke-width="3"/>
<line x1="289.502" y1="-121.031" x2="289.502" y2="720.969" stroke="#093737" stroke-width="3"/>
<line x1="295.502" y1="-121.031" x2="295.502" y2="720.969" stroke="#093737" stroke-width="3"/>
<line x1="301.502" y1="-121.031" x2="301.502" y2="720.969" stroke="#093737" stroke-width="3"/>
<line x1="307.502" y1="-121.031" x2="307.502" y2="720.969" stroke="#093737" stroke-width="3"/>
<line x1="313.502" y1="-121.031" x2="313.502" y2="720.969" stroke="#093737" stroke-width="3"/>
<line x1="319.502" y1="-121.031" x2="319.502" y2="720.969" stroke="#093737" stroke-width="3"/>
<line x1="325.502" y1="-121.031" x2="325.502" y2="720.969" stroke="#093737" stroke-width="3"/>
<line x1="331.502" y1="-121.031" x2="331.502" y2="720.969" stroke="#093737" stroke-width="3"/>
<line x1="337.502" y1="-121.031" x2="337.502" y2="720.969" stroke="#093737" stroke-width="3"/>
<line x1="343.502" y1="-121.031" x2="343.502" y2="720.969" stroke="#093737" stroke-width="3"/>
<line x1="349.502" y1="-121.031" x2="349.502" y2="720.969" stroke="#093737" stroke-width="3"/>
<line x1="355.502" y1="-121.031" x2="355.502" y2="720.969" stroke="#093737" stroke-width="3"/>
<line x1="361.502" y1="-121.031" x2="361.502" y2="720.969" stroke="#093737" stroke-width="3"/>
<line x1="367.502" y1="-121.031" x2="367.502" y2="720.969" stroke="#093737" stroke-width="3"/>
<line x1="373.502" y1="-121.031" x2="373.502" y2="720.969" stroke="#093737" stroke-width="3"/>
<line x1="379.502" y1="-121.031" x2="379.502" y2="720.969" stroke="#093737" stroke-width="3"/>
<line x1="385.502" y1="-121.031" x2="385.502" y2="720.969" stroke="#093737" stroke-width="3"/>
<line x1="391.502" y1="-121.031" x2="391.502" y2="720.969" stroke="#093737" stroke-width="3"/>
<line x1="397.502" y1="-121.031" x2="397.502" y2="720.969" stroke="#093737" stroke-width="3"/>
</g>
<defs>
<filter id="filter0_f_37_2113" x="-36.0205" y="1.46777" width="688.234" height="470.956" filterUnits="userSpaceOnUse" color-interpolation-filters="sRGB">
<feFlood flood-opacity="0" result="BackgroundImageFix"/>
<feBlend mode="normal" in="SourceGraphic" in2="BackgroundImageFix" result="shape"/>
<feGaussianBlur stdDeviation="21.75" result="effect1_foregroundBlur_37_2113"/>
</filter>
<clipPath id="clip0_37_2113">
<rect width="433" height="466" fill="white" transform="translate(0 -121.031)"/>
</clipPath>
</defs>
</svg>
