<svg width="600" height="309" viewBox="0 0 600 309" fill="none" xmlns="http://www.w3.org/2000/svg">
<g clip-path="url(#clip0_37_2189)">
<g filter="url(#filter0_f_37_2189)">
<path d="M853.874 -8.98405L452.294 277.541L286 243.614" stroke="#093737" stroke-width="28" stroke-linejoin="round"/>
</g>
<line y1="-1.5" x2="842" y2="-1.5" transform="matrix(0.694535 0.719459 0.719459 -0.694535 347.398 -270.031)" stroke="#FFFAF2" stroke-width="3"/>
<line y1="-1.5" x2="842" y2="-1.5" transform="matrix(0.694535 0.719459 0.719459 -0.694535 343.081 -265.864)" stroke="#FFFAF2" stroke-width="3"/>
<line y1="-1.5" x2="842" y2="-1.5" transform="matrix(0.694535 0.719459 0.719459 -0.694535 338.764 -261.696)" stroke="#FFFAF2" stroke-width="3"/>
<line y1="-1.5" x2="842" y2="-1.5" transform="matrix(0.694535 0.719459 0.719459 -0.694535 334.447 -257.529)" stroke="#FFFAF2" stroke-width="3"/>
<line y1="-1.5" x2="842" y2="-1.5" transform="matrix(0.694535 0.719459 0.719459 -0.694535 330.131 -253.362)" stroke="#FFFAF2" stroke-width="3"/>
<line y1="-1.5" x2="842" y2="-1.5" transform="matrix(0.694535 0.719459 0.719459 -0.694535 325.814 -249.195)" stroke="#FFFAF2" stroke-width="3"/>
<line y1="-1.5" x2="842" y2="-1.5" transform="matrix(0.694535 0.719459 0.719459 -0.694535 321.497 -245.027)" stroke="#FFFAF2" stroke-width="3"/>
<line y1="-1.5" x2="842" y2="-1.5" transform="matrix(0.694535 0.719459 0.719459 -0.694535 317.18 -240.86)" stroke="#FFFAF2" stroke-width="3"/>
<line y1="-1.5" x2="842" y2="-1.5" transform="matrix(0.694535 0.719459 0.719459 -0.694535 312.864 -236.693)" stroke="#FFFAF2" stroke-width="3"/>
<line y1="-1.5" x2="842" y2="-1.5" transform="matrix(0.694535 0.719459 0.719459 -0.694535 308.547 -232.526)" stroke="#FFFAF2" stroke-width="3"/>
<line y1="-1.5" x2="842" y2="-1.5" transform="matrix(0.694535 0.719459 0.719459 -0.694535 304.23 -228.358)" stroke="#FFFAF2" stroke-width="3"/>
<line y1="-1.5" x2="842" y2="-1.5" transform="matrix(0.694535 0.719459 0.719459 -0.694535 299.913 -224.191)" stroke="#FFFAF2" stroke-width="3"/>
<line y1="-1.5" x2="842" y2="-1.5" transform="matrix(0.694535 0.719459 0.719459 -0.694535 295.596 -220.024)" stroke="#FFFAF2" stroke-width="3"/>
<line y1="-1.5" x2="842" y2="-1.5" transform="matrix(0.694535 0.719459 0.719459 -0.694535 291.28 -215.857)" stroke="#FFFAF2" stroke-width="3"/>
<line y1="-1.5" x2="842" y2="-1.5" transform="matrix(0.694535 0.719459 0.719459 -0.694535 286.963 -211.689)" stroke="#FFFAF2" stroke-width="3"/>
<line y1="-1.5" x2="842" y2="-1.5" transform="matrix(0.694535 0.719459 0.719459 -0.694535 282.646 -207.522)" stroke="#FFFAF2" stroke-width="3"/>
<line y1="-1.5" x2="842" y2="-1.5" transform="matrix(0.694535 0.719459 0.719459 -0.694535 278.329 -203.355)" stroke="#FFFAF2" stroke-width="3"/>
<line y1="-1.5" x2="842" y2="-1.5" transform="matrix(0.694535 0.719459 0.719459 -0.694535 274.012 -199.188)" stroke="#FFFAF2" stroke-width="3"/>
<line y1="-1.5" x2="842" y2="-1.5" transform="matrix(0.694535 0.719459 0.719459 -0.694535 269.696 -195.021)" stroke="#FFFAF2" stroke-width="3"/>
<line y1="-1.5" x2="842" y2="-1.5" transform="matrix(0.694535 0.719459 0.719459 -0.694535 265.379 -190.853)" stroke="#FFFAF2" stroke-width="3"/>
<line y1="-1.5" x2="842" y2="-1.5" transform="matrix(0.694535 0.719459 0.719459 -0.694535 261.062 -186.686)" stroke="#FFFAF2" stroke-width="3"/>
<line y1="-1.5" x2="842" y2="-1.5" transform="matrix(0.694535 0.719459 0.719459 -0.694535 256.745 -182.519)" stroke="#FFFAF2" stroke-width="3"/>
<line y1="-1.5" x2="842" y2="-1.5" transform="matrix(0.694535 0.719459 0.719459 -0.694535 252.428 -178.352)" stroke="#FFFAF2" stroke-width="3"/>
<line y1="-1.5" x2="842" y2="-1.5" transform="matrix(0.694535 0.719459 0.719459 -0.694535 248.112 -174.184)" stroke="#FFFAF2" stroke-width="3"/>
<line y1="-1.5" x2="842" y2="-1.5" transform="matrix(0.694535 0.719459 0.719459 -0.694535 243.795 -170.017)" stroke="#FFFAF2" stroke-width="3"/>
<line y1="-1.5" x2="842" y2="-1.5" transform="matrix(0.694535 0.719459 0.719459 -0.694535 239.478 -165.85)" stroke="#FFFAF2" stroke-width="3"/>
<line y1="-1.5" x2="842" y2="-1.5" transform="matrix(0.694535 0.719459 0.719459 -0.694535 235.161 -161.683)" stroke="#FFFAF2" stroke-width="3"/>
<line y1="-1.5" x2="842" y2="-1.5" transform="matrix(0.694535 0.719459 0.719459 -0.694535 230.845 -157.515)" stroke="#FFFAF2" stroke-width="3"/>
<line y1="-1.5" x2="842" y2="-1.5" transform="matrix(0.694535 0.719459 0.719459 -0.694535 226.528 -153.348)" stroke="#FFFAF2" stroke-width="3"/>
<line y1="-1.5" x2="842" y2="-1.5" transform="matrix(0.694535 0.719459 0.719459 -0.694535 222.211 -149.181)" stroke="#FFFAF2" stroke-width="3"/>
<line y1="-1.5" x2="842" y2="-1.5" transform="matrix(0.694535 0.719459 0.719459 -0.694535 217.894 -145.014)" stroke="#FFFAF2" stroke-width="3"/>
<line y1="-1.5" x2="842" y2="-1.5" transform="matrix(0.694535 0.719459 0.719459 -0.694535 213.578 -140.846)" stroke="#FFFAF2" stroke-width="3"/>
<line y1="-1.5" x2="842" y2="-1.5" transform="matrix(0.694535 0.719459 0.719459 -0.694535 209.261 -136.679)" stroke="#FFFAF2" stroke-width="3"/>
<line y1="-1.5" x2="842" y2="-1.5" transform="matrix(0.694535 0.719459 0.719459 -0.694535 204.944 -132.512)" stroke="#FFFAF2" stroke-width="3"/>
<line y1="-1.5" x2="842" y2="-1.5" transform="matrix(0.694535 0.719459 0.719459 -0.694535 200.627 -128.345)" stroke="#FFFAF2" stroke-width="3"/>
<line y1="-1.5" x2="842" y2="-1.5" transform="matrix(0.694535 0.719459 0.719459 -0.694535 196.311 -124.177)" stroke="#FFFAF2" stroke-width="3"/>
<line y1="-1.5" x2="842" y2="-1.5" transform="matrix(0.694535 0.719459 0.719459 -0.694535 191.994 -120.01)" stroke="#FFFAF2" stroke-width="3"/>
<line y1="-1.5" x2="842" y2="-1.5" transform="matrix(0.694535 0.719459 0.719459 -0.694535 187.677 -115.843)" stroke="#FFFAF2" stroke-width="3"/>
<line y1="-1.5" x2="842" y2="-1.5" transform="matrix(0.694535 0.719459 0.719459 -0.694535 183.36 -111.676)" stroke="#FFFAF2" stroke-width="3"/>
<line y1="-1.5" x2="842" y2="-1.5" transform="matrix(0.694535 0.719459 0.719459 -0.694535 179.043 -107.509)" stroke="#FFFAF2" stroke-width="3"/>
<line y1="-1.5" x2="842" y2="-1.5" transform="matrix(0.694535 0.719459 0.719459 -0.694535 174.727 -103.341)" stroke="#FFFAF2" stroke-width="3"/>
<line y1="-1.5" x2="842" y2="-1.5" transform="matrix(0.694535 0.719459 0.719459 -0.694535 170.41 -99.1741)" stroke="#FFFAF2" stroke-width="3"/>
<line y1="-1.5" x2="842" y2="-1.5" transform="matrix(0.694535 0.719459 0.719459 -0.694535 166.093 -95.0068)" stroke="#FFFAF2" stroke-width="3"/>
<line y1="-1.5" x2="842" y2="-1.5" transform="matrix(0.694535 0.719459 0.719459 -0.694535 161.776 -90.8396)" stroke="#FFFAF2" stroke-width="3"/>
<line y1="-1.5" x2="842" y2="-1.5" transform="matrix(0.694535 0.719459 0.719459 -0.694535 157.459 -86.6724)" stroke="#FFFAF2" stroke-width="3"/>
<line y1="-1.5" x2="842" y2="-1.5" transform="matrix(0.694535 0.719459 0.719459 -0.694535 153.143 -82.5051)" stroke="#FFFAF2" stroke-width="3"/>
<line y1="-1.5" x2="842" y2="-1.5" transform="matrix(0.694535 0.719459 0.719459 -0.694535 148.826 -78.3379)" stroke="#FFFAF2" stroke-width="3"/>
<line y1="-1.5" x2="842" y2="-1.5" transform="matrix(0.694535 0.719459 0.719459 -0.694535 144.509 -74.1707)" stroke="#FFFAF2" stroke-width="3"/>
<line y1="-1.5" x2="842" y2="-1.5" transform="matrix(0.694535 0.719459 0.719459 -0.694535 140.192 -70.0034)" stroke="#FFFAF2" stroke-width="3"/>
<line y1="-1.5" x2="842" y2="-1.5" transform="matrix(0.694535 0.719459 0.719459 -0.694535 135.876 -65.8362)" stroke="#FFFAF2" stroke-width="3"/>
<line y1="-1.5" x2="842" y2="-1.5" transform="matrix(0.694535 0.719459 0.719459 -0.694535 131.559 -61.6689)" stroke="#FFFAF2" stroke-width="3"/>
<line y1="-1.5" x2="842" y2="-1.5" transform="matrix(0.694535 0.719459 0.719459 -0.694535 127.242 -57.5017)" stroke="#FFFAF2" stroke-width="3"/>
<line y1="-1.5" x2="842" y2="-1.5" transform="matrix(0.694535 0.719459 0.719459 -0.694535 122.925 -53.3345)" stroke="#FFFAF2" stroke-width="3"/>
<line y1="-1.5" x2="842" y2="-1.5" transform="matrix(0.694535 0.719459 0.719459 -0.694535 118.609 -49.1672)" stroke="#FFFAF2" stroke-width="3"/>
<line y1="-1.5" x2="842" y2="-1.5" transform="matrix(0.694535 0.719459 0.719459 -0.694535 114.292 -45)" stroke="#FFFAF2" stroke-width="3"/>
<line y1="-1.5" x2="842" y2="-1.5" transform="matrix(0.694535 0.719459 0.719459 -0.694535 109.975 -40.8328)" stroke="#FFFAF2" stroke-width="3"/>
<line y1="-1.5" x2="842" y2="-1.5" transform="matrix(0.694535 0.719459 0.719459 -0.694535 105.658 -36.6655)" stroke="#FFFAF2" stroke-width="3"/>
<line y1="-1.5" x2="842" y2="-1.5" transform="matrix(0.694535 0.719459 0.719459 -0.694535 101.342 -32.4983)" stroke="#FFFAF2" stroke-width="3"/>
<line y1="-1.5" x2="842" y2="-1.5" transform="matrix(0.694535 0.719459 0.719459 -0.694535 97.0247 -28.3311)" stroke="#FFFAF2" stroke-width="3"/>
<line y1="-1.5" x2="842" y2="-1.5" transform="matrix(0.694535 0.719459 0.719459 -0.694535 92.708 -24.1638)" stroke="#FFFAF2" stroke-width="3"/>
<line y1="-1.5" x2="842" y2="-1.5" transform="matrix(0.694535 0.719459 0.719459 -0.694535 88.3911 -19.9966)" stroke="#FFFAF2" stroke-width="3"/>
<line y1="-1.5" x2="842" y2="-1.5" transform="matrix(0.694535 0.719459 0.719459 -0.694535 84.0745 -15.8293)" stroke="#FFFAF2" stroke-width="3"/>
<line y1="-1.5" x2="842" y2="-1.5" transform="matrix(0.694535 0.719459 0.719459 -0.694535 79.7576 -11.6621)" stroke="#FFFAF2" stroke-width="3"/>
<line y1="-1.5" x2="842" y2="-1.5" transform="matrix(0.694535 0.719459 0.719459 -0.694535 75.4409 -7.49487)" stroke="#FFFAF2" stroke-width="3"/>
<line y1="-1.5" x2="842" y2="-1.5" transform="matrix(0.694535 0.719459 0.719459 -0.694535 71.124 -3.32764)" stroke="#FFFAF2" stroke-width="3"/>
<line y1="-1.5" x2="842" y2="-1.5" transform="matrix(0.694535 0.719459 0.719459 -0.694535 66.8074 0.8396)" stroke="#FFFAF2" stroke-width="3"/>
<line y1="-1.5" x2="842" y2="-1.5" transform="matrix(0.694535 0.719459 0.719459 -0.694535 62.4905 5.00684)" stroke="#FFFAF2" stroke-width="3"/>
<line y1="-1.5" x2="842" y2="-1.5" transform="matrix(0.694535 0.719459 0.719459 -0.694535 58.1738 9.17407)" stroke="#FFFAF2" stroke-width="3"/>
<line y1="-1.5" x2="842" y2="-1.5" transform="matrix(0.694535 0.719459 0.719459 -0.694535 53.8569 13.3413)" stroke="#FFFAF2" stroke-width="3"/>
<line y1="-1.5" x2="842" y2="-1.5" transform="matrix(0.694535 0.719459 0.719459 -0.694535 49.5403 17.5085)" stroke="#FFFAF2" stroke-width="3"/>
<line y1="-1.5" x2="842" y2="-1.5" transform="matrix(0.694535 0.719459 0.719459 -0.694535 45.2234 21.6758)" stroke="#FFFAF2" stroke-width="3"/>
<line y1="-1.5" x2="842" y2="-1.5" transform="matrix(0.694535 0.719459 0.719459 -0.694535 40.9067 25.843)" stroke="#FFFAF2" stroke-width="3"/>
<line y1="-1.5" x2="842" y2="-1.5" transform="matrix(0.694535 0.719459 0.719459 -0.694535 36.5898 30.0103)" stroke="#FFFAF2" stroke-width="3"/>
</g>
<defs>
<filter id="filter0_f_37_2189" x="239.701" y="-63.8806" width="665.804" height="398.922" filterUnits="userSpaceOnUse" color-interpolation-filters="sRGB">
<feFlood flood-opacity="0" result="BackgroundImageFix"/>
<feBlend mode="normal" in="SourceGraphic" in2="BackgroundImageFix" result="shape"/>
<feGaussianBlur stdDeviation="21.75" result="effect1_foregroundBlur_37_2189"/>
</filter>
<clipPath id="clip0_37_2189">
<rect width="546.797" height="588.47" fill="white" transform="matrix(-0.719459 0.694535 0.694535 0.719459 347.398 -270.031)"/>
</clipPath>
</defs>
</svg>
